<?xml version="1.0" encoding="utf-8"?>
<!-- Generator: Adobe Illustrator 22.0.1, SVG Export Plug-In . SVG Version: 6.00 Build 0)  -->
<svg version="1.1" id="Layer_1" xmlns="http://www.w3.org/2000/svg" xmlns:xlink="http://www.w3.org/1999/xlink" x="0px" y="0px"
	 viewBox="0 0 128 128" style="enable-background:new 0 0 128 128;" xml:space="preserve">
<style type="text/css">
	.st0{fill:#547580;}
	.st1{fill:#35495E;}
	.st2{fill:#9FC9D3;}
	.st3{fill:#FB7B76;}
	.st4{fill:#F0C419;}
	.st5{fill:#FFCF2C;}
	.st6{fill:#37A8E5;}
	.st7{fill:#A3EFFF;}
</style>
<path id="Shape" class="st0" d="M81.8,111.1c0,2-1.6,3.7-3.7,3.7H8.3c-2,0-3.7-1.6-3.7-3.7V11.9c0-2,1.6-3.7,3.7-3.7h58.8l14.7,14.7
	V111.1z"/>
<path id="Shape_1_" class="st1" d="M67.1,8.2v11c0,2,1.6,3.7,3.7,3.7h11L67.1,8.2z"/>
<path id="Shape_2_" class="st2" d="M17.5,32.1c-0.5,0-1-0.2-1.3-0.5l-5.5-5.5c-0.7-0.7-0.7-1.9,0-2.6l5.5-5.5
	c0.5-0.5,1.1-0.7,1.8-0.5s1.1,0.7,1.3,1.3s0,1.3-0.5,1.8l-4.2,4.2l4.2,4.2c0.5,0.5,0.7,1.3,0.4,2C18.9,31.7,18.3,32.1,17.5,32.1z"/>
<path id="Shape_3_" class="st2" d="M39.6,32.1c-0.7,0-1.4-0.5-1.7-1.1c-0.3-0.7-0.1-1.5,0.4-2l4.2-4.2l-4.2-4.2
	c-0.7-0.7-0.7-1.9,0-2.6c0.7-0.7,1.9-0.7,2.6,0l5.5,5.5c0.7,0.7,0.7,1.9,0,2.6l-5.5,5.5C40.5,31.9,40,32.1,39.6,32.1L39.6,32.1z"/>
<path id="Shape_4_" class="st2" d="M24.9,32.1c-0.7,0-1.3-0.4-1.6-1c-0.3-0.6-0.3-1.3,0.1-1.9l7.3-11c0.4-0.5,1-0.9,1.6-0.8
	c0.6,0,1.2,0.4,1.5,1c0.3,0.6,0.2,1.3-0.1,1.8l-7.3,11C26.1,31.8,25.5,32.1,24.9,32.1z"/>
<g>
	<path id="Shape_5_" class="st3" d="M15.7,41.3H12c-1,0-1.8-0.8-1.8-1.8s0.8-1.8,1.8-1.8h3.7c1,0,1.8,0.8,1.8,1.8
		S16.7,41.3,15.7,41.3z"/>
	<path id="Shape_6_" class="st3" d="M15.7,50.5H12c-1,0-1.8-0.8-1.8-1.8s0.8-1.8,1.8-1.8h3.7c1,0,1.8,0.8,1.8,1.8
		S16.7,50.5,15.7,50.5z"/>
	<path id="Shape_7_" class="st3" d="M15.7,59.7H12c-1,0-1.8-0.8-1.8-1.8c0-1,0.8-1.8,1.8-1.8h3.7c1,0,1.8,0.8,1.8,1.8
		C17.5,58.9,16.7,59.7,15.7,59.7z"/>
	<path id="Shape_8_" class="st3" d="M15.7,68.9H12c-1,0-1.8-0.8-1.8-1.8s0.8-1.8,1.8-1.8h3.7c1,0,1.8,0.8,1.8,1.8
		S16.7,68.9,15.7,68.9z"/>
	<path id="Shape_9_" class="st3" d="M15.7,78.1H12c-1,0-1.8-0.8-1.8-1.8s0.8-1.8,1.8-1.8h3.7c1,0,1.8,0.8,1.8,1.8
		S16.7,78.1,15.7,78.1z"/>
	<path id="Shape_10_" class="st3" d="M15.7,87.2H12c-1,0-1.8-0.8-1.8-1.8s0.8-1.8,1.8-1.8h3.7c1,0,1.8,0.8,1.8,1.8
		S16.7,87.2,15.7,87.2z"/>
	<path id="Shape_11_" class="st3" d="M15.7,96.4H12c-1,0-1.8-0.8-1.8-1.8s0.8-1.8,1.8-1.8h3.7c1,0,1.8,0.8,1.8,1.8
		S16.7,96.4,15.7,96.4z"/>
	<path id="Shape_12_" class="st3" d="M15.7,105.6H12c-1,0-1.8-0.8-1.8-1.8c0-1,0.8-1.8,1.8-1.8h3.7c1,0,1.8,0.8,1.8,1.8
		C17.5,104.8,16.7,105.6,15.7,105.6z"/>
</g>
<path id="Shape_13_" class="st2" d="M48.7,41.3H23c-1,0-1.8-0.8-1.8-1.8s0.8-1.8,1.8-1.8h25.7c1,0,1.8,0.8,1.8,1.8
	S49.8,41.3,48.7,41.3z"/>
<path id="Shape_14_" class="st2" d="M43.2,50.5H23c-1,0-1.8-0.8-1.8-1.8s0.8-1.8,1.8-1.8h20.2c1,0,1.8,0.8,1.8,1.8
	S44.2,50.5,43.2,50.5z"/>
<path id="Shape_15_" class="st4" d="M57.9,59.7H23c-1,0-1.8-0.8-1.8-1.8c0-1,0.8-1.8,1.8-1.8h34.9c1,0,1.8,0.8,1.8,1.8
	C59.8,58.9,58.9,59.7,57.9,59.7z"/>
<path id="Shape_16_" class="st2" d="M70.8,50.5H50.6c-1,0-1.8-0.8-1.8-1.8s0.8-1.8,1.8-1.8h20.2c1,0,1.8,0.8,1.8,1.8
	S71.8,50.5,70.8,50.5z"/>
<path id="Shape_17_" class="st4" d="M74.5,59.7h-9.2c-1,0-1.8-0.8-1.8-1.8c0-1,0.8-1.8,1.8-1.8h9.2c1,0,1.8,0.8,1.8,1.8
	C76.3,58.9,75.5,59.7,74.5,59.7z"/>
<path id="Shape_18_" class="st2" d="M35.9,68.9H23c-1,0-1.8-0.8-1.8-1.8s0.8-1.8,1.8-1.8h12.9c1,0,1.8,0.8,1.8,1.8
	S36.9,68.9,35.9,68.9z"/>
<path id="Shape_19_" class="st4" d="M45.1,78.1H23c-1,0-1.8-0.8-1.8-1.8s0.8-1.8,1.8-1.8h22c1,0,1.8,0.8,1.8,1.8
	S46.1,78.1,45.1,78.1z"/>
<path id="Shape_20_" class="st4" d="M44.2,87.2H23c-1,0-1.8-0.8-1.8-1.8s0.8-1.8,1.8-1.8h21.1c1,0,1.8,0.8,1.8,1.8
	S45.2,87.2,44.2,87.2z"/>
<path id="Shape_21_" class="st2" d="M37.7,96.4H23c-1,0-1.8-0.8-1.8-1.8s0.8-1.8,1.8-1.8h14.7c1,0,1.8,0.8,1.8,1.8
	S38.7,96.4,37.7,96.4z"/>
<path id="Shape_22_" class="st4" d="M41.4,105.6H23c-1,0-1.8-0.8-1.8-1.8c0-1,0.8-1.8,1.8-1.8h18.4c1,0,1.8,0.8,1.8,1.8
	C43.2,104.8,42.4,105.6,41.4,105.6z"/>
<path id="Shape_23_" class="st2" d="M61.6,68.9H43.2c-1,0-1.8-0.8-1.8-1.8s0.8-1.8,1.8-1.8h18.4c1,0,1.8,0.8,1.8,1.8
	S62.6,68.9,61.6,68.9z"/>
<path id="Shape_24_" class="st2" d="M74.5,68.9H69c-1,0-1.8-0.8-1.8-1.8s0.8-1.8,1.8-1.8h5.5c1,0,1.8,0.8,1.8,1.8
	S75.5,68.9,74.5,68.9z"/>
<path id="Shape_25_" class="st2" d="M70.8,87.2h-5.5c-1,0-1.8-0.8-1.8-1.8s0.8-1.8,1.8-1.8h5.5c1,0,1.8,0.8,1.8,1.8
	S71.8,87.2,70.8,87.2z"/>
<path class="st5" d="M72.1,106.8H55.7c-3.6,0-6.5-2.9-6.5-6.5V86.4c0-3.6,2.9-6.5,6.5-6.5h16.4c1.2,0,2.2,1,2.2,2.2v22.5
	C74.3,105.8,73.3,106.8,72.1,106.8z"/>
<path class="st6" d="M92.1,64.9c-0.7-0.4-1.6-0.2-2.3,0.3L71.4,79.9v26.9l18.4,14.7c0.4,0.3,0.9,0.5,1.4,0.5c0.3,0,0.6-0.1,0.9-0.2
	c0.7-0.4,1.2-1.1,1.2-2V66.9C93.3,66,92.8,65.3,92.1,64.9z"/>
<g>
	<path class="st7" d="M115.6,117.1c-0.4,0-0.7-0.1-1.1-0.3c-1-0.6-1.4-1.9-0.8-3c3.5-6.2,5.3-13.3,5.3-20.5c0-7.2-1.9-14.3-5.3-20.5
		c-0.6-1-0.2-2.4,0.8-3c1-0.6,2.4-0.2,3,0.8c3.9,6.9,5.9,14.7,5.9,22.6c0,7.9-2,15.8-5.9,22.6C117.1,116.7,116.3,117.1,115.6,117.1
		L115.6,117.1z"/>
	<path class="st7" d="M107.7,110.9c-0.3,0-0.7-0.1-1-0.2c-1.1-0.5-1.5-1.9-1-2.9c2.3-4.5,3.4-9.3,3.4-14.4c0-5.1-1.1-9.9-3.4-14.4
		c-0.5-1.1-0.1-2.4,1-2.9c1.1-0.5,2.4-0.1,2.9,1c2.6,5.1,3.9,10.6,3.9,16.4c0,5.7-1.3,11.3-3.9,16.4
		C109.3,110.5,108.5,110.9,107.7,110.9L107.7,110.9z"/>
	<path class="st7" d="M99.7,104.6c-0.3,0-0.5,0-0.8-0.2c-1.1-0.4-1.7-1.7-1.2-2.8c1.1-2.6,1.6-5.4,1.6-8.3c0-2.9-0.5-5.7-1.6-8.3
		c-0.4-1.1,0.1-2.4,1.2-2.8c1.1-0.4,2.4,0.1,2.8,1.2c1.3,3.2,1.9,6.5,1.9,9.9c0,3.4-0.6,6.8-1.9,9.9
		C101.4,104.1,100.6,104.6,99.7,104.6L99.7,104.6z"/>
</g>
</svg>
